<?xml version="1.0" encoding="UTF-8" standalone="no"?>
<!-- Created with Inkscape (http://www.inkscape.org/) -->

<svg
   width="144.80531mm"
   height="122.94853mm"
   viewBox="0 0 144.80531 122.94853"
   version="1.1"
   id="svg1"
   xml:space="preserve"
   inkscape:version="1.3 (0e150ed6c4, 2023-07-21)"
   sodipodi:docname="pokedex.svg"
   xmlns:inkscape="http://www.inkscape.org/namespaces/inkscape"
   xmlns:sodipodi="http://sodipodi.sourceforge.net/DTD/sodipodi-0.dtd"
   xmlns="http://www.w3.org/2000/svg"
   xmlns:svg="http://www.w3.org/2000/svg"><sodipodi:namedview
     id="namedview1"
     pagecolor="#ffffff"
     bordercolor="#000000"
     borderopacity="0.25"
     inkscape:showpageshadow="2"
     inkscape:pageopacity="0.0"
     inkscape:pagecheckerboard="0"
     inkscape:deskcolor="#d1d1d1"
     inkscape:document-units="mm"
     inkscape:zoom="0.90509668"
     inkscape:cx="409.34854"
     inkscape:cy="450.22815"
     inkscape:window-width="1920"
     inkscape:window-height="1017"
     inkscape:window-x="-8"
     inkscape:window-y="-8"
     inkscape:window-maximized="1"
     inkscape:current-layer="layer2" /><defs
     id="defs1" /><g
     inkscape:groupmode="layer"
     id="layer2"
     inkscape:label="Calque 2"
     style="display:inline"
     transform="translate(-14.858368,-24.625325)"><g
       id="g35"
       inkscape:export-filename="pokedexOpen.svg"
       inkscape:export-xdpi="96"
       inkscape:export-ydpi="96"
       inkscape:label="base"><path
         style="display:inline;fill:#e72020;fill-opacity:1;stroke:none;stroke-width:0.521999;stroke-opacity:1"
         d="M 82.7135,147.4408 82.17086,24.625326 H 21.938831 c -1.360798,0.176251 -6.62765,1.634996 -6.873324,6.330693 L 14.88463,139.66309 c -0.330966,6.66962 2.464328,7.71406 8.501218,7.41595 z"
         id="path6"
         sodipodi:nodetypes="ccccccc" /><path
         style="display:inline;fill:#ffffff;fill-opacity:1;stroke:none;stroke-width:0.521999;stroke-opacity:1"
         d="M 30.308779,110.86589 H 76.49615 c 1.060759,-0.16704 1.56462,-0.023 1.808322,-1.59075 l -0.02117,-54.213085 c -0.04215,-0.250096 -0.494545,-1.067694 -1.527143,-1.117036 L 22.5858,53.809361 c -0.484342,-0.131853 -1.533155,0.471564 -1.558286,1.501563 l 0.05652,45.048726 z"
         id="path7"
         sodipodi:nodetypes="ccccccccc" /><path
         style="display:inline;fill:none;fill-opacity:1;stroke:#121212;stroke-width:0.722;stroke-dasharray:none;stroke-opacity:1"
         d="M 81.00825,145.09834 V 34.891413 H 66.977084 C 58.813353,40.630061 52.290438,49.304907 42.421698,51.992487 L 17.15625,51.846323 v 88.574797 c 0.138095,2.80904 1.157384,4.40043 3.048669,4.38489 z"
         id="path10"
         sodipodi:nodetypes="cccccccc" /><g
         id="Screen"><path
           style="display:inline;fill:#000000;fill-opacity:1;stroke:none;stroke-width:0.422;stroke-dasharray:none;stroke-opacity:1"
           d="m 27.51325,62.589306 1.607611,-1.096421 h 42.606523 c 1.575668,-0.08506 1.626606,0.616253 1.680866,1.315665 v 33.105925 c -0.0278,0.61827 0.19757,1.53033 -1.31546,1.60741 H 29.193944 L 27.51325,95.768309 Z"
           id="path14"
           sodipodi:nodetypes="ccccccccc" />
           <image class="pokedex__image" transform="translate(-114, 150)" height="28" width="28" x="1" y="-3" href="https://raw.githubusercontent.com/PokeAPI/sprites/master/sprites/pokemon/shiny/66.png"></image>
           </g><rect
         style="display:inline;fill:#e72020;fill-opacity:1;stroke:none;stroke-width:0.183133;stroke-dasharray:none;stroke-opacity:1"
         id="rect15"
         width="12.372918"
         height="122.75843"
         x="81.196579"
         y="24.81542" /><path
         style="display:inline;fill:none;fill-opacity:0.356495;stroke:#000000;stroke-width:0.456;stroke-dasharray:none;stroke-opacity:1"
         d="m 82.61653,45.365885 h 10.6699"
         id="path16"
         sodipodi:nodetypes="cc" /><path
         style="display:inline;fill:#ff5252;fill-opacity:1;stroke:none;stroke-width:0.455999;stroke-dasharray:none;stroke-opacity:1"
         d="m 82.17804,32.772047 4.96954,0.07308"
         id="path17" /><path
         style="display:inline;fill:none;fill-opacity:1;stroke:#000000;stroke-width:0.455999;stroke-dasharray:none;stroke-opacity:1"
         d="M 82.76269,147.51002 82.3242,32.845131 h 7.89281 c 0,0 -7.7101,0.657733 -7.30815,0.621192 0.40194,-0.03654 5.51765,0.03654 5.51765,0.03654 l 2.00974,-0.694274 3.14251,-0.07308"
         id="path18"
         sodipodi:nodetypes="ccc" /><path
         style="display:inline;fill:none;fill-opacity:0.356495;stroke:#000000;stroke-width:0.456;stroke-dasharray:none;stroke-opacity:1"
         d="m 82.61625,135.28914 h 10.6699"
         id="path16-3"
         sodipodi:nodetypes="cc" /><path
         style="display:inline;fill:none;fill-opacity:1;stroke:#242424;stroke-width:0.381;stroke-dasharray:none;stroke-opacity:1"
         d="m 92.0874,131.3615 0.41341,-10.12859 0.20671,26.25163 L 92.60417,32.86621 92.0874,44.932658 v -6.795451"
         id="path24" /><path
         style="display:inline;fill:none;fill-opacity:1;stroke:#242424;stroke-width:0.381;stroke-dasharray:none;stroke-opacity:1"
         d="M 92.66524,91.639206 92.29983,97.851135 92.0075,91.712286 91.78826,99.458925 92.0075,86.450417"
         id="path25" /><g
         id="SpaceButton"><rect
           style="display:inline;fill:#efc91e;fill-opacity:1;stroke:none;stroke-width:0.703289;stroke-opacity:1"
           id="rect9"
           width="22.947594"
           height="12.204612"
           x="32.044125"
           y="126.24329" /></g><ellipse
         style="display:inline;fill:#323232;fill-opacity:1;stroke:none;stroke-width:0.521999;stroke-opacity:1"
         id="path8"
         cx="26.197601"
         cy="116.04843"
         rx="4.3118091"
         ry="4.3483496" /><path
         style="display:inline;fill:#880000;fill-opacity:1;stroke:#7a0000;stroke-width:0.156;stroke-dasharray:none;stroke-opacity:1"
         d="m 35.002385,114.71414 h 8.031672 c 2.147655,0.54787 1.493245,3.01959 0,3.04511 h -8.031672 c -1.480287,-0.38695 -1.408954,-2.67434 0,-3.04511 z"
         id="path15"
         sodipodi:nodetypes="ccccc" /><path
         style="display:inline;fill:#880000;fill-opacity:1;stroke:#7a0000;stroke-width:0.0324537;stroke-dasharray:none;stroke-opacity:1"
         d="m 66.405565,140.12979 h 1.732819 c 0.463353,0.1099 0.322166,0.60573 0,0.61085 h -1.732819 c -0.31937,-0.0777 -0.30398,-0.53647 0,-0.61085 z"
         id="path15-2"
         sodipodi:nodetypes="ccccc" /><path
         style="display:inline;fill:#880000;fill-opacity:1;stroke:#7a0000;stroke-width:0.0324537;stroke-dasharray:none;stroke-opacity:1"
         d="m 70.386915,140.13485 h 1.732819 c 0.463353,0.1099 0.322166,0.60573 0,0.61085 h -1.732819 c -0.31937,-0.0777 -0.30398,-0.53647 0,-0.61085 z"
         id="path15-2-6"
         sodipodi:nodetypes="ccccc" /><path
         style="display:inline;fill:#0058c1;fill-opacity:1;stroke:#004eab;stroke-width:0.15621;stroke-dasharray:none;stroke-opacity:1"
         d="m 48.656481,114.81769 h 8.031672 c 2.147655,0.54787 1.493245,3.01959 0,3.04511 h -8.031672 c -1.480287,-0.38695 -1.408954,-2.67434 0,-3.04511 z"
         id="path15-0"
         sodipodi:nodetypes="ccccc" /><path
         style="display:inline;fill:none;fill-opacity:1;stroke:#606060;stroke-width:1.022;stroke-dasharray:none;stroke-opacity:1"
         d="m 62.157397,101.18246 11.498006,0.0258"
         id="path13" /><path
         style="display:inline;fill:none;fill-opacity:1;stroke:#606060;stroke-width:1.022;stroke-dasharray:none;stroke-opacity:1"
         d="m 62.157397,102.71459 11.498006,0.0258"
         id="path13-1" /><path
         style="display:inline;fill:none;fill-opacity:1;stroke:#606060;stroke-width:1.022;stroke-dasharray:none;stroke-opacity:1"
         d="m 62.157397,104.38787 11.498006,0.0258"
         id="path13-3" /><path
         style="display:inline;fill:none;fill-opacity:1;stroke:#606060;stroke-width:1.022;stroke-dasharray:none;stroke-opacity:1"
         d="m 62.157397,106.13911 11.498006,0.0258"
         id="path13-1-7" /><path
         style="display:inline;fill:none;fill-opacity:1;stroke:#606060;stroke-width:1.022;stroke-dasharray:none;stroke-opacity:1"
         d="m 62.157397,107.7737 11.498006,0.0258"
         id="path13-1-7-7" /><path
         style="display:inline;fill:#323232;fill-opacity:1;stroke:#3d3d3d;stroke-width:0.521999;stroke-opacity:1"
         d="m 60.15625,125.86589 h 6 v -6.57714 h 6 v 6.57714 h 6.226691 l -0.1279,5 H 72.15625 v 7 h -6 v -7 l -6,-2e-5 z"
         id="path1"
         sodipodi:nodetypes="ccccccccccccc" /><ellipse
         style="display:inline;fill:#323232;fill-opacity:1;stroke:#3d3d3d;stroke-width:0.521999;stroke-opacity:1"
         id="path5"
         cx="63.94751"
         cy="140.40919"
         rx="0.81394637"
         ry="0.79133677" /><ellipse
         style="display:inline;fill:#323232;fill-opacity:1;stroke:#3d3d3d;stroke-width:0.521999;stroke-opacity:1"
         id="path5-6"
         cx="28.264786"
         cy="127.41822"
         rx="0.81394637"
         ry="0.79133677" /><ellipse
         style="display:inline;fill:#323232;fill-opacity:1;stroke:#3d3d3d;stroke-width:0.521999;stroke-opacity:1"
         id="path5-1"
         cx="23.068134"
         cy="127.41822"
         rx="0.81394637"
         ry="0.79133677" /><ellipse
         style="display:inline;fill:#ff7373;fill-opacity:1;stroke:none;stroke-width:1.022;stroke-dasharray:none;stroke-opacity:1"
         id="path12"
         cx="37.178101"
         cy="28.387156"
         rx="1.9001193"
         ry="2.0462823" /><ellipse
         style="display:inline;fill:#ff0505;fill-opacity:1;stroke:none;stroke-width:1.022;stroke-dasharray:none;stroke-opacity:1"
         id="path12-5"
         cx="46.188889"
         cy="57.91217"
         rx="1.9001193"
         ry="2.0462823" /><ellipse
         style="display:inline;fill:#ff0505;fill-opacity:1;stroke:none;stroke-width:1.45288;stroke-dasharray:none;stroke-opacity:1"
         id="path12-5-2"
         cx="35.250118"
         cy="103.07607"
         rx="2.8238356"
         ry="2.7826715" /><ellipse
         style="display:inline;fill:#8f0000;fill-opacity:1;stroke:none;stroke-width:0.239641;stroke-dasharray:none;stroke-opacity:1"
         id="path12-5-2-5"
         cx="69.315971"
         cy="140.42484"
         rx="0.46238926"
         ry="0.46233344" /><ellipse
         style="display:inline;fill:#ff0505;fill-opacity:1;stroke:none;stroke-width:1.022;stroke-dasharray:none;stroke-opacity:1"
         id="path12-8"
         cx="53.328506"
         cy="57.91217"
         rx="1.9001193"
         ry="2.0462823" /><ellipse
         style="display:inline;fill:#ffdf05;fill-opacity:1;stroke:none;stroke-width:1.022;stroke-dasharray:none;stroke-opacity:1"
         id="path12-4"
         cx="42.09444"
         cy="28.387167"
         rx="1.9001193"
         ry="2.0462823" /><ellipse
         style="display:inline;fill:#01ca00;fill-opacity:1;stroke:none;stroke-width:1.022;stroke-dasharray:none;stroke-opacity:1"
         id="path12-4-5"
         cx="46.926682"
         cy="28.387167"
         rx="1.9001193"
         ry="2.0462823" /><ellipse
         style="fill:#29408a;fill-opacity:1;stroke:#ffffff;stroke-width:1.022;stroke-dasharray:none;stroke-opacity:1"
         id="path11"
         cx="26.617821"
         cy="36.864616"
         rx="7.0158248"
         ry="6.8696618" /><path
         style="display:inline;fill:#304ba0;fill-opacity:1;stroke:none;stroke-width:0.381;stroke-dasharray:none;stroke-opacity:1"
         d="m 22.315147,41.660587 c -5.511445,-4.692553 0.118475,-14.152008 7.609611,-10.258817 0.16939,2.826829 -1.427194,9.798372 -7.609611,10.258817 z"
         id="path30"
         sodipodi:nodetypes="ccc" /><ellipse
         style="fill:#08d4ff;fill-opacity:1;stroke:none;stroke-width:1.09391;stroke-dasharray:none;stroke-opacity:1"
         id="path29"
         cx="23.769794"
         cy="33.85014"
         rx="1.697912"
         ry="1.531531" /></g><g
       id="g36"
       transform="translate(-28.647953,3.2155865)"><path
         style="display:inline;fill:#e72020;fill-opacity:1;stroke:none;stroke-width:0.751351;stroke-dasharray:none;stroke-opacity:1"
         d="m 122.08586,144.26859 -0.0448,-114.654907 h 14.60272 c 8.49629,5.971448 15.28491,14.998208 25.55565,17.794815 l 26.11221,-0.152092 v 91.365344 c -0.14372,2.92301 -2.08179,4.60496 -3.42893,5.64684 z"
         id="path10-2-2"
         sodipodi:nodetypes="cccccccc" /><path
         style="display:inline;fill:none;fill-opacity:1;stroke:#121212;stroke-width:0.722;stroke-dasharray:none;stroke-opacity:1"
         d="M 122.60471,142.23937 V 32.032452 h 14.03117 c 8.16373,5.738648 14.68664,14.413494 24.55538,17.101074 l 25.26545,-0.146164 v 88.574788 c -0.1381,2.80904 -1.15738,4.40043 -3.04867,4.38489 z"
         id="path10-2"
         sodipodi:nodetypes="cccccccc" /><path
         style="display:inline;fill:none;fill-opacity:1;stroke:#000000;stroke-width:0.4;stroke-dasharray:none;stroke-opacity:1"
         d="m 160.06999,78.831317 -0.0365,18.124217"
         id="path22" /><rect
         style="display:inline;fill:#3354b6;fill-opacity:1;stroke:#243c82;stroke-width:0.181;stroke-dasharray:none;stroke-opacity:1"
         id="rect9-8-1-6"
         width="51.083977"
         height="18.197296"
         x="129.4778"
         y="78.955467"
         ry="1.121598" /><rect
         style="display:inline;fill:#323232;fill-opacity:1;stroke:none;stroke-width:0.5725;stroke-opacity:1"
         id="rect9-8"
         width="21.3398"
         height="8.6966991"
         x="129.69099"
         y="120.58443"
         ry="0.88529098" /><rect
         style="display:inline;fill:#d5d5d5;fill-opacity:1;stroke:none;stroke-width:0.5725;stroke-opacity:1"
         id="rect9-8-5"
         width="21.3398"
         height="8.6966991"
         x="128.98518"
         y="103.66741"
         ry="0.88529098" /><rect
         style="display:inline;fill:#323232;fill-opacity:1;stroke:none;stroke-width:1.28129;stroke-opacity:1"
         id="rect9-8-1"
         width="51.083977"
         height="18.197296"
         x="129.65376"
         y="55.334721"
         ry="1.121598" /><rect
         style="display:inline;fill:#323232;fill-opacity:1;stroke:none;stroke-width:0.5725;stroke-opacity:1"
         id="rect9-8-6"
         width="21.3398"
         height="8.6966991"
         x="158.68164"
         y="120.58459"
         ry="0.88529098" /><path
         style="display:inline;fill:none;fill-opacity:1;stroke:#000000;stroke-width:0.556;stroke-dasharray:none;stroke-opacity:1"
         d="M 180.35011,88.149209 129.55846,87.929965"
         id="path20" /><path
         style="display:inline;fill:none;fill-opacity:1;stroke:#000000;stroke-width:0.356;stroke-dasharray:none;stroke-opacity:1"
         d="m 170.3014,79.025038 0.14617,18.014596"
         id="path21" /><path
         style="display:inline;fill:none;fill-opacity:1;stroke:#000000;stroke-width:0.356;stroke-dasharray:none;stroke-opacity:1"
         d="m 160.04833,79.025044 0.14617,18.0146"
         id="path21-8" /><path
         style="display:inline;fill:none;fill-opacity:1;stroke:#000000;stroke-width:0.356;stroke-dasharray:none;stroke-opacity:1"
         d="m 149.85361,79.025038 0.14617,18.014596"
         id="path21-1" /><path
         style="display:inline;fill:none;fill-opacity:1;stroke:#000000;stroke-width:0.356;stroke-dasharray:none;stroke-opacity:1"
         d="m 139.43564,79.025038 0.14617,18.014596"
         id="path21-6" /><path
         style="display:inline;fill:#616161;fill-opacity:1;stroke:#565656;stroke-width:0.118101;stroke-dasharray:none;stroke-opacity:1"
         d="m 162.81335,98.585284 h 6.73516 c 1.80097,0.37344 1.2522,2.058226 0,2.075616 h -6.73516 c -1.24133,-0.26375 -1.18152,-1.822896 0,-2.075616 z"
         id="path15-0-5"
         sodipodi:nodetypes="ccccc" /><path
         style="display:inline;fill:#616161;fill-opacity:1;stroke:#565656;stroke-width:0.118101;stroke-dasharray:none;stroke-opacity:1"
         d="m 172.88593,98.585644 h 6.73516 c 1.80097,0.37344 1.2522,2.058226 0,2.075616 h -6.73516 c -1.24133,-0.26375 -1.18152,-1.822896 0,-2.075616 z"
         id="path15-0-5-4"
         sodipodi:nodetypes="ccccc" /><ellipse
         style="display:inline;fill:#ffdf05;fill-opacity:1;stroke:none;stroke-width:1.52385;stroke-dasharray:none;stroke-opacity:1"
         id="path12-4-1"
         cx="176.34431"
         cy="110.71701"
         rx="3.0328827"
         ry="2.850179" /><path
         style="fill:none;fill-opacity:0.283988;stroke:#242424;stroke-width:0.181;stroke-dasharray:none;stroke-opacity:1"
         d="m 139.64371,103.64249 0.0365,8.62362"
         id="path23" /></g></g></svg>
