<?xml version="1.0" encoding="UTF-8" standalone="no"?>
<!-- Created with Inkscape (http://www.inkscape.org/) -->

<svg
   width="78.725693mm"
   height="122.94851mm"
   viewBox="0 0 78.725693 122.94851"
   version="1.1"
   id="svg1"
   xml:space="preserve"
   inkscape:version="1.3 (0e150ed6c4, 2023-07-21)"
   sodipodi:docname="pokedex.svg"
   xmlns:inkscape="http://www.inkscape.org/namespaces/inkscape"
   xmlns:sodipodi="http://sodipodi.sourceforge.net/DTD/sodipodi-0.dtd"
   xmlns="http://www.w3.org/2000/svg"
   xmlns:svg="http://www.w3.org/2000/svg"><sodipodi:namedview
     id="namedview1"
     pagecolor="#ffffff"
     bordercolor="#000000"
     borderopacity="0.25"
     inkscape:showpageshadow="2"
     inkscape:pageopacity="0.0"
     inkscape:pagecheckerboard="0"
     inkscape:deskcolor="#d1d1d1"
     inkscape:document-units="mm"
     inkscape:zoom="0.90509668"
     inkscape:cx="409.34854"
     inkscape:cy="379.51747"
     inkscape:window-width="1920"
     inkscape:window-height="1017"
     inkscape:window-x="-8"
     inkscape:window-y="-8"
     inkscape:window-maximized="1"
     inkscape:current-layer="layer2" /><defs
     id="defs1" /><g
     inkscape:groupmode="layer"
     id="layer2"
     inkscape:label="Calque 2"
     style="display:inline"
     transform="translate(-122.28372,-160.86102)"><g
       id="g37"><g
         id="g33"><path
           style="display:inline;fill:#e72020;fill-opacity:1;stroke:none;stroke-width:0.521999;stroke-opacity:1"
           d="m 190.13886,283.67648 -0.54264,-122.81547 h -60.23203 c -1.3608,0.17625 -6.62765,1.635 -6.87332,6.33069 l -0.18088,108.70707 c -0.33097,6.66962 2.46433,7.71406 8.50122,7.41595 z"
           id="path6-7"
           sodipodi:nodetypes="ccccccc" /><path
           style="display:inline;fill:none;fill-opacity:1;stroke:#121212;stroke-width:0.722;stroke-dasharray:none;stroke-opacity:1"
           d="M 188.43361,281.33402 V 171.1271 h -14.03117 c -8.16373,5.73865 -14.68664,14.41349 -24.55538,17.10107 l -25.26545,-0.14616 v 88.57479 c 0.1381,2.80904 1.15738,4.40043 3.04867,4.38489 z"
           id="path10-24"
           sodipodi:nodetypes="cccccccc" /><rect
           style="display:inline;fill:#e72020;fill-opacity:1;stroke:none;stroke-width:0.183133;stroke-dasharray:none;stroke-opacity:1"
           id="rect15-6"
           width="12.372918"
           height="122.75843"
           x="188.62193"
           y="161.0511" /><path
           style="display:inline;fill:none;fill-opacity:0.356495;stroke:#000000;stroke-width:0.456;stroke-dasharray:none;stroke-opacity:1"
           d="m 190.04189,181.60157 h 10.6699"
           id="path16-4"
           sodipodi:nodetypes="cc" /><path
           style="display:inline;fill:#ff5252;fill-opacity:1;stroke:none;stroke-width:0.455999;stroke-dasharray:none;stroke-opacity:1"
           d="m 189.6034,169.00773 4.96954,0.0731"
           id="path17-4" /><path
           style="display:inline;fill:none;fill-opacity:1;stroke:#000000;stroke-width:0.455999;stroke-dasharray:none;stroke-opacity:1"
           d="m 190.18805,283.7457 -0.43849,-114.66488 h 7.89281 c 0,0 -7.7101,0.65773 -7.30815,0.62119 0.40194,-0.0365 5.51765,0.0365 5.51765,0.0365 l 2.00974,-0.69428 3.14251,-0.0731"
           id="path18-0"
           sodipodi:nodetypes="ccc" /><path
           style="display:inline;fill:none;fill-opacity:0.356495;stroke:#000000;stroke-width:0.456;stroke-dasharray:none;stroke-opacity:1"
           d="m 190.04161,271.52482 h 10.6699"
           id="path16-3-3"
           sodipodi:nodetypes="cc" /><path
           style="display:inline;fill:none;fill-opacity:1;stroke:#242424;stroke-width:0.381;stroke-dasharray:none;stroke-opacity:1"
           d="m 199.51276,267.59718 0.41341,-10.12859 0.20671,26.25163 -0.10335,-114.61832 -0.51677,12.06644 v -6.79545"
           id="path24-2" /><path
           style="display:inline;fill:none;fill-opacity:1;stroke:#242424;stroke-width:0.381;stroke-dasharray:none;stroke-opacity:1"
           d="m 200.0906,227.87489 -0.36541,6.21193 -0.29233,-6.13885 -0.21924,7.74664 0.21924,-13.00851"
           id="path25-6" /><ellipse
           style="display:inline;fill:#ff7373;fill-opacity:1;stroke:none;stroke-width:1.022;stroke-dasharray:none;stroke-opacity:1"
           id="path12-1"
           cx="144.60345"
           cy="164.62283"
           rx="1.9001193"
           ry="2.0462823" /><ellipse
           style="display:inline;fill:#ffdf05;fill-opacity:1;stroke:none;stroke-width:1.022;stroke-dasharray:none;stroke-opacity:1"
           id="path12-4-4"
           cx="149.51981"
           cy="164.62285"
           rx="1.9001193"
           ry="2.0462823" /><ellipse
           style="display:inline;fill:#01ca00;fill-opacity:1;stroke:none;stroke-width:1.022;stroke-dasharray:none;stroke-opacity:1"
           id="path12-4-5-2"
           cx="154.35204"
           cy="164.62285"
           rx="1.9001193"
           ry="2.0462823" /><ellipse
           style="fill:#29408a;fill-opacity:1;stroke:#ffffff;stroke-width:1.022;stroke-dasharray:none;stroke-opacity:1"
           id="path11-6"
           cx="134.04318"
           cy="173.1003"
           rx="7.0158248"
           ry="6.8696618" /><path
           style="display:inline;fill:#304ba0;fill-opacity:1;stroke:none;stroke-width:0.381;stroke-dasharray:none;stroke-opacity:1"
           d="m 129.74051,177.89627 c -5.51145,-4.69255 0.11847,-14.15201 7.60961,-10.25881 0.16939,2.82682 -1.4272,9.79837 -7.60961,10.25881 z"
           id="path30-8"
           sodipodi:nodetypes="ccc" /><ellipse
           style="fill:#08d4ff;fill-opacity:1;stroke:none;stroke-width:1.09391;stroke-dasharray:none;stroke-opacity:1"
           id="path29-8"
           cx="131.19516"
           cy="170.08582"
           rx="1.697912"
           ry="1.531531" /></g><g
         id="g34"
         transform="translate(105.53568,5.6058594)"
         style="display:inline"><path
           style="display:inline;fill:#e72020;fill-opacity:1;stroke:none;stroke-width:0.711708;stroke-dasharray:none;stroke-opacity:1"
           d="m 83.077362,274.64019 0.0425,-108.4317 H 69.265444 c -8.060908,5.64733 -14.501653,14.18414 -24.246082,16.82896 L 20.245236,182.8936 v 86.40625 c 0.136355,2.76435 1.975114,4.35501 3.253221,5.34034 z"
           id="path10-2-2-8"
           sodipodi:nodetypes="cccccccc" /><path
           style="display:inline;fill:#ffbc0d;fill-opacity:1;stroke:#242424;stroke-width:0.360898;stroke-dasharray:none;stroke-opacity:1"
           d="m 27.561665,221.33094 4.522772,3.84913 c 0.226029,0.27047 0.281175,0.54092 0,0.81139 l -4.257652,3.69803 c -0.350378,0.23616 -0.644388,0.27565 -0.765063,-0.28959 v -7.78279 c 0.01238,-0.24373 0.220403,-0.33547 0.499943,-0.28617 z"
           id="path26"
           sodipodi:nodetypes="ccccccc" /><rect
           style="display:inline;fill:none;fill-opacity:1;stroke:#242424;stroke-width:0.496705;stroke-opacity:1"
           id="rect9-8-2"
           width="48.535576"
           height="2.8782623"
           x="28.08213"
           y="261.45184"
           ry="1.4391311" /></g></g></g></svg>
